<?xml version="1.0" encoding="UTF-8" standalone="no"?>
<svg
   xmlns:dc="http://purl.org/dc/elements/1.1/"
   xmlns:cc="http://creativecommons.org/ns#"
   xmlns:rdf="http://www.w3.org/1999/02/22-rdf-syntax-ns#"
   xmlns:svg="http://www.w3.org/2000/svg"
   xmlns="http://www.w3.org/2000/svg"
   xmlns:xlink="http://www.w3.org/1999/xlink"
   xmlns:sodipodi="http://sodipodi.sourceforge.net/DTD/sodipodi-0.dtd"
   xmlns:inkscape="http://www.inkscape.org/namespaces/inkscape"
   sodipodi:docname="straps.svg"
   inkscape:version="1.0 (4035a4fb49, 2020-05-01)"
   id="svg8"
   version="1.1"
   viewBox="0 0 42.333332 26.458334"
   height="100"
   width="160">
  <defs
     id="defs2">
    <linearGradient
       id="linearGradient1029"
       inkscape:collect="always">
      <stop
         id="stop1025"
         offset="0"
         style="stop-color:#ffffff;stop-opacity:0.5" />
      <stop
         id="stop1027"
         offset="1"
         style="stop-color:#ffffff;stop-opacity:0;" />
    </linearGradient>
    <linearGradient
       id="linearGradient1003"
       inkscape:collect="always">
      <stop
         id="stop999"
         offset="0"
         style="stop-color:#ff6400;stop-opacity:0.5" />
      <stop
         id="stop1001"
         offset="1"
         style="stop-color:#ffc800;stop-opacity:0.50196081" />
    </linearGradient>
    <linearGradient
       id="linearGradient993"
       inkscape:collect="always">
      <stop
         id="stop989"
         offset="0"
         style="stop-color:#640000;stop-opacity:0.5" />
      <stop
         id="stop991"
         offset="1"
         style="stop-color:#c80000;stop-opacity:0.5" />
    </linearGradient>
    <linearGradient
       id="linearGradient20"
       inkscape:collect="always">
      <stop
         id="stop16"
         offset="0"
         style="stop-color:#003200;stop-opacity:1" />
      <stop
         id="stop18"
         offset="1"
         style="stop-color:#009600;stop-opacity:1" />
    </linearGradient>
    <linearGradient
       gradientUnits="userSpaceOnUse"
       y2="0"
       x2="42.333332"
       y1="26.458334"
       x1="0"
       id="linearGradient22"
       xlink:href="#linearGradient20"
       inkscape:collect="always" />
    <linearGradient
       gradientUnits="userSpaceOnUse"
       y2="10.583333"
       x2="42.333332"
       y1="26.458334"
       x1="0"
       id="linearGradient995"
       xlink:href="#linearGradient993"
       inkscape:collect="always" />
    <linearGradient
       gradientTransform="translate(-5.2916669)"
       gradientUnits="userSpaceOnUse"
       y2="15.875"
       x2="42.333332"
       y1="31.75"
       x1="0"
       id="linearGradient1005"
       xlink:href="#linearGradient1003"
       inkscape:collect="always" />
    <linearGradient
       gradientUnits="userSpaceOnUse"
       y2="62.5"
       x2="100"
       y1="0"
       x1="0"
       id="linearGradient1031"
       xlink:href="#linearGradient1029"
       inkscape:collect="always" />
  </defs>
  <sodipodi:namedview
     showguides="false"
     inkscape:window-maximized="1"
     inkscape:window-y="24"
     inkscape:window-x="0"
     inkscape:window-height="1020"
     inkscape:window-width="1920"
     units="px"
     showgrid="true"
     inkscape:document-rotation="0"
     inkscape:current-layer="layer1"
     inkscape:document-units="mm"
     inkscape:cy="41.392483"
     inkscape:cx="87.868912"
     inkscape:zoom="5.6"
     inkscape:pageshadow="2"
     inkscape:pageopacity="0.0"
     borderopacity="1.0"
     bordercolor="#666666"
     pagecolor="#ffffff"
     id="base">
    <inkscape:grid
       id="grid10"
       type="xygrid" />
    <inkscape:grid
       dotted="true"
       originx="0.66145833"
       originy="0.66145833"
       id="grid12"
       type="xygrid" />
  </sodipodi:namedview>
  <metadata
     id="metadata5">
    <rdf:RDF>
      <cc:Work
         rdf:about="">
        <dc:format>image/svg+xml</dc:format>
        <dc:type
           rdf:resource="http://purl.org/dc/dcmitype/StillImage" />
        <dc:title></dc:title>
      </cc:Work>
    </rdf:RDF>
  </metadata>
  <g
     id="layer1"
     inkscape:groupmode="layer"
     inkscape:label="Layer 1">
    <rect
       y="0"
       x="0"
       height="26.458332"
       width="42.333332"
       id="rect14"
       style="fill:url(#linearGradient22);fill-rule:evenodd;stroke-width:0.264583;fill-opacity:1" />
    <g
       id="g1045">
      <path
         style="fill:url(#linearGradient995);stroke:none;stroke-width:0.264583px;stroke-linecap:butt;stroke-linejoin:miter;stroke-opacity:1;fill-opacity:1"
         d="M 0,26.458333 42.333333,15.875 V 10.583333 L 0,21.166666 Z"
         id="path987" />
      <path
         style="fill:#ffffff;stroke:none;stroke-width:0.264583px;stroke-linecap:butt;stroke-linejoin:miter;stroke-opacity:1;fill-opacity:0.50196081"
         d="M 42.333333,14.552083 0,25.135416 v 1.322917 L 42.333333,15.875 Z"
         id="path1033" />
    </g>
    <path
       id="path997"
       d="M -5.2916669,15.875 37.041663,26.458333 V 31.75 L -5.2916669,21.166666 Z"
       style="fill:url(#linearGradient1005);fill-opacity:1;stroke:none;stroke-width:0.264583px;stroke-linecap:butt;stroke-linejoin:miter;stroke-opacity:1" />
    <path
       transform="scale(0.26458333)"
       d="M 19.001953 0 L 19.001953 19.001953 L 0 19.001953 L 0 21.001953 L 19.001953 21.001953 L 19.001953 38.998047 L 0 38.998047 L 0 40.998047 L 19.001953 40.998047 L 19.001953 59.003906 L 0 59.003906 L 0 60.996094 L 19.001953 60.996094 L 19.001953 79.001953 L 0 79.001953 L 0 81.001953 L 19.001953 81.001953 L 19.001953 100.00195 L 21.001953 100.00195 L 21.001953 81.001953 L 38.998047 81.001953 L 38.998047 100.00195 L 40.998047 100.00195 L 40.998047 81.001953 L 59.003906 81.001953 L 59.003906 100.00195 L 60.996094 100.00195 L 60.996094 81.001953 L 79.001953 81.001953 L 79.001953 100.00195 L 81.001953 100.00195 L 81.001953 81.001953 L 98.998047 81.001953 L 98.998047 100.00195 L 100.99805 100.00195 L 100.99805 81.001953 L 119.00391 81.001953 L 119.00391 100.00195 L 120.99609 100.00195 L 120.99609 81.001953 L 139.00195 81.001953 L 139.00195 100.00195 L 141.00195 100.00195 L 141.00195 81.001953 L 160.00195 81.001953 L 160.00195 79.001953 L 141.00195 79.001953 L 141.00195 60.996094 L 160.00195 60.996094 L 160.00195 59.003906 L 141.00195 59.003906 L 141.00195 40.998047 L 160.00195 40.998047 L 160.00195 38.998047 L 141.00195 38.998047 L 141.00195 21.001953 L 160.00195 21.001953 L 160.00195 19.001953 L 141.00195 19.001953 L 141.00195 0 L 139.00195 0 L 139.00195 19.001953 L 120.99609 19.001953 L 120.99609 0 L 119.00391 0 L 119.00391 19.001953 L 100.99805 19.001953 L 100.99805 0 L 98.998047 0 L 98.998047 19.001953 L 81.001953 19.001953 L 81.001953 0 L 79.001953 0 L 79.001953 19.001953 L 60.996094 19.001953 L 60.996094 0 L 59.003906 0 L 59.003906 19.001953 L 40.998047 19.001953 L 40.998047 0 L 38.998047 0 L 38.998047 19.001953 L 21.001953 19.001953 L 21.001953 0 L 19.001953 0 z M 21.001953 21.001953 L 38.998047 21.001953 L 38.998047 38.998047 L 21.001953 38.998047 L 21.001953 21.001953 z M 40.998047 21.001953 L 59.003906 21.001953 L 59.003906 38.998047 L 40.998047 38.998047 L 40.998047 21.001953 z M 60.996094 21.001953 L 79.001953 21.001953 L 79.001953 38.998047 L 60.996094 38.998047 L 60.996094 21.001953 z M 81.001953 21.001953 L 98.998047 21.001953 L 98.998047 38.998047 L 81.001953 38.998047 L 81.001953 21.001953 z M 100.99805 21.001953 L 119.00391 21.001953 L 119.00391 38.998047 L 100.99805 38.998047 L 100.99805 21.001953 z M 120.99609 21.001953 L 139.00195 21.001953 L 139.00195 38.998047 L 120.99609 38.998047 L 120.99609 21.001953 z M 21.001953 40.998047 L 38.998047 40.998047 L 38.998047 59.003906 L 21.001953 59.003906 L 21.001953 40.998047 z M 40.998047 40.998047 L 59.003906 40.998047 L 59.003906 59.003906 L 40.998047 59.003906 L 40.998047 40.998047 z M 60.996094 40.998047 L 79.001953 40.998047 L 79.001953 59.003906 L 60.996094 59.003906 L 60.996094 40.998047 z M 81.001953 40.998047 L 98.998047 40.998047 L 98.998047 59.003906 L 81.001953 59.003906 L 81.001953 40.998047 z M 100.99805 40.998047 L 119.00391 40.998047 L 119.00391 59.003906 L 100.99805 59.003906 L 100.99805 40.998047 z M 120.99609 40.998047 L 139.00195 40.998047 L 139.00195 59.003906 L 120.99609 59.003906 L 120.99609 40.998047 z M 21.001953 60.996094 L 38.998047 60.996094 L 38.998047 79.001953 L 21.001953 79.001953 L 21.001953 60.996094 z M 40.998047 60.996094 L 59.003906 60.996094 L 59.003906 79.001953 L 40.998047 79.001953 L 40.998047 60.996094 z M 60.996094 60.996094 L 79.001953 60.996094 L 79.001953 79.001953 L 60.996094 79.001953 L 60.996094 60.996094 z M 81.001953 60.996094 L 98.998047 60.996094 L 98.998047 79.001953 L 81.001953 79.001953 L 81.001953 60.996094 z M 100.99805 60.996094 L 119.00391 60.996094 L 119.00391 79.001953 L 100.99805 79.001953 L 100.99805 60.996094 z M 120.99609 60.996094 L 139.00195 60.996094 L 139.00195 79.001953 L 120.99609 79.001953 L 120.99609 60.996094 z "
       style="color:#000000;font-style:normal;font-variant:normal;font-weight:normal;font-stretch:normal;font-size:medium;line-height:normal;font-family:sans-serif;font-variant-ligatures:normal;font-variant-position:normal;font-variant-caps:normal;font-variant-numeric:normal;font-variant-alternates:normal;font-variant-east-asian:normal;font-feature-settings:normal;font-variation-settings:normal;text-indent:0;text-align:start;text-decoration:none;text-decoration-line:none;text-decoration-style:solid;text-decoration-color:#000000;letter-spacing:normal;word-spacing:normal;text-transform:none;writing-mode:lr-tb;direction:ltr;text-orientation:mixed;dominant-baseline:auto;baseline-shift:baseline;text-anchor:start;white-space:normal;shape-padding:0;shape-margin:0;inline-size:0;clip-rule:nonzero;display:inline;overflow:visible;visibility:visible;opacity:1;isolation:auto;mix-blend-mode:normal;color-interpolation:sRGB;color-interpolation-filters:linearRGB;solid-color:#000000;solid-opacity:1;vector-effect:none;fill:url(#linearGradient1031);fill-opacity:1;fill-rule:nonzero;stroke:none;stroke-width:2;stroke-linecap:butt;stroke-linejoin:miter;stroke-miterlimit:4;stroke-dasharray:none;stroke-dashoffset:0;stroke-opacity:1;color-rendering:auto;image-rendering:auto;shape-rendering:auto;text-rendering:auto;enable-background:accumulate;stop-color:#000000;stop-opacity:1"
       id="path944" />
  </g>
</svg>
